<?xml version="1.0" encoding="UTF-8"?> <svg xmlns="http://www.w3.org/2000/svg" xml:space="preserve" x="0" y="0" version="1.1" viewBox="0 0 207 45"><style>.st0{fill:#003a92}</style><path d="M89.5 3.1v15.2L77 3.1h-4.2v23.1h4.4V10.6L90 26.2h4V3.1h-4.5z" class="st0"></path><path d="M115.4 22.2V25c-1 .6-2.2.9-3.4.9-1.7 0-2.6-.9-2.9-1.9-1.1 1.3-2.9 1.9-4.4 1.9-2.9 0-5.5-1.7-5.5-4.8 0-3 2.2-4.9 5.6-5.9 1.2-.3 2.5-.6 3.7-.8V14c0-1.8-.9-2.8-2.6-2.8-1.9 0-3.8.7-5.6 2.1V9.5c1.5-1.3 3.8-2 6.3-2 2 0 3.9.6 4.9 1.7 1.1 1.1 1.7 2.5 1.7 4.3v8.2c0 .5.1.8.6.9.5.2 1.1-.1 1.6-.4m-9.2.5c.9 0 1.8-.4 2.3-1.2v-4.1c-3.2.4-4.8 1.4-4.8 3.3 0 1.2.9 2 2.5 2" class="st0"></path><path d="M119 20.2v-8.7h-2.6v-1.2l7.2-6.9v4.5h5.4v3.6h-5.4v8.2c0 1.6.8 2.5 2 2.6h.6c1.2 0 2.3-.4 3.4-1.1v3.6c-1.4.8-3 1.2-4.6 1.2-3.6.1-6-1.6-6-5.8" class="st0"></path><path d="M133.2 2.9c0-1.5 1.2-2.7 2.6-2.7 1.5 0 2.7 1.2 2.7 2.6v.1c0 1.5-1.2 2.6-2.7 2.6-1.5-.1-2.6-1.2-2.6-2.6m4.9 22.7h-4.7V7.9h4.7v17.7z" class="st0"></path><path d="M141.6 16.7c0-5.3 4.2-9.3 9.7-9.3 5.6 0 9.7 3.9 9.7 9.3 0 4.6-3.3 9.3-9.8 9.3-5.5.1-9.6-3.9-9.6-9.3m4.9 0c0 3.3 2 5.5 4.7 5.5 2.8 0 4.8-2.2 4.8-5.5s-2-5.5-4.8-5.5c-2.7.1-4.7 2.3-4.7 5.5" class="st0"></path><path d="M168.6 7.9V10c1.4-1.8 3.2-2.5 5.4-2.5 3.2 0 6.2 1.8 6.2 6.9v11.2h-4.7V14.4c0-1.3-.4-3.2-2.9-3.2-1.6 0-3.1 1-3.8 2.5v12h-4.7V7.9h4.5z" class="st0"></path><path d="M200 22.2V25c-1 .6-2.2.9-3.4.9-1.6 0-2.6-.9-2.9-1.9-1.1 1.3-2.9 1.9-4.4 1.9-2.9 0-5.5-1.7-5.5-4.8 0-3 2.2-4.9 5.6-5.9 1.2-.3 2.5-.6 3.7-.8V14c0-1.8-.9-2.8-2.6-2.8-1.9 0-3.8.7-5.6 2.1V9.5c1.5-1.3 3.8-2 6.3-2 2 0 3.9.6 4.9 1.7 1.1 1.1 1.7 2.5 1.7 4.3v8.2c0 .5.1.8.6.9.5.2 1.1-.1 1.6-.4m-9.2.5c.9 0 1.8-.4 2.3-1.2v-4.1c-3.2.4-4.8 1.4-4.8 3.3 0 1.2.9 2 2.5 2" class="st0"></path><path d="M202.3 0h4.7v25.6h-4.7z" class="st0"></path><path d="M99.3 34.1v.8l-.8.2c-.2 0-.3.2-.3.4v5.1c0 2.8-1.5 3.9-3.9 3.9-2.7 0-3.9-1.3-3.9-4v-4.9c0-.2-.1-.4-.3-.4l-.7-.2v-.8h4.3v.8l-1.1.2c-.2 0-.3.2-.3.4v5.1c0 2.2.8 3.1 2.4 3.1 1.7 0 2.4-1.1 2.4-3v-5.1c0-.2-.1-.4-.3-.4l-1.1-.2v-.8l3.6-.2z" class="st0"></path><path d="M110.5 35.5v8.8h-1.6l-5.2-8.1V43c0 .2.1.4.3.4l1.2.2v.8h-4v-.8l1-.2c.2 0 .3-.2.3-.4v-7.5c0-.2-.1-.4-.3-.4l-1-.2v-.8h3.2l4.9 7.6v-6.3c0-.2-.1-.4-.3-.4l-1.1-.2V34h3.8v.8l-1 .2c-.1.1-.3.3-.2.5" class="st0"></path><path d="m118.2 34.9-1 .2c-.2 0-.4.2-.3.4V43c0 .2.1.4.3.4l1 .2v.8h-4.5v-.8l1-.2c.2 0 .3-.2.3-.4v-7.5c0-.2-.1-.4-.3-.4l-1-.2v-.8h4.5v.8z" class="st0"></path><path d="M121.1 35.4c-.1-.2-.2-.3-.4-.3l-.8-.2v-.8h4.3v.8l-1.3.3 2.7 7.6 2.4-7.6-1.3-.3v-.8h3.6v.8l-.8.2c-.2 0-.3.2-.4.3l-3 8.9h-1.6l-3.4-8.9z" class="st0"></path><path d="m138.6 36.7-.3-1.2c0-.2-.2-.3-.4-.4-.4-.1-.8-.2-1.3-.1h-1.5v3.7l3.1-.1v1.1l-3.1-.1v3.9h1.8c.5 0 .9 0 1.4-.2.2-.1.3-.2.4-.4l.5-1.5.9.1c0 .9-.1 1.9-.3 2.8H132v-.8l1-.2c.2 0 .3-.2.3-.4v-7.5c0-.2-.1-.4-.3-.4l-1-.2V34h7.5c.1.9.1 1.7 0 2.6h-.9z" class="st0"></path><path d="M142.7 44.3v-.8l1-.2c.2 0 .3-.2.3-.4v-7.5c0-.2-.1-.4-.3-.4l-1-.2V34h2.2c.8 0 1.4-.1 2.3-.1 2.7 0 3.8.8 3.8 2.7 0 2-1.2 2.6-2.2 2.9.6.3 1 .8 1.3 1.6l.9 1.8c.1.2.3.4.5.5l.7.2v.8H150c-.4 0-.7-.6-1.1-1.5l-.7-1.5c-.2-.5-.5-1-.8-1.4h-1.5v3c0 .2.1.3.3.4l1.1.2v.8l-4.6-.1zm6.4-7.5c0-1.4-.5-2-2.1-2-.4 0-.9.1-1.1.1v4.2h1.5c1 0 1.7-.7 1.7-2.3" class="st0"></path><path d="M157.7 44.5c-1.1 0-2.3-.3-3.3-.8 0-.9 0-1.8.1-2.7h1l.2 1.6c0 .2.1.4.3.5.5.4 1.1.6 1.7.6 1.2 0 1.8-.6 1.8-1.6 0-1.2-1-1.7-2.3-2.3-1.3-.6-2.7-1.3-2.7-3.1 0-1.6 1.2-2.8 3.5-2.8 1 0 1.9.2 2.8.5 0 .8 0 1.7-.1 2.5h-1l-.3-1.4c0-.2-.1-.4-.3-.5-.4-.3-.8-.4-1.3-.4-1 0-1.6.5-1.6 1.4 0 1.1.9 1.5 2.3 2.3 1.4.7 2.8 1.5 2.8 3.1.1 1.6-1 3.1-3.6 3.1" class="st0"></path><path d="m168 34.9-1 .2c-.2 0-.4.2-.3.4V43c0 .2.1.4.3.4l1 .2v.8h-4.5v-.8l1-.2c.2 0 .3-.2.3-.4v-7.5c0-.2-.1-.4-.3-.4l-1-.2v-.8h4.5v.8z" class="st0"></path><path d="M172 44.3v-.8l1.5-.3c.2 0 .3-.2.3-.4v-8h-.7c-.4 0-.8 0-1.2.1-.2.1-.3.2-.3.4l-.5 2h-.9c-.1-1.1-.1-2.2 0-3.3h9c.1 1.1.1 2.2 0 3.3h-.9l-.5-2c0-.2-.2-.3-.3-.4-.4-.1-.8-.1-1.2-.1h-.7v8c0 .2.1.4.3.4l1.5.3v.8H172z" class="st0"></path><path d="M183 44.3v-.8l1.2-.3c.2 0 .3-.1.3-.4v-2.6l-2.9-5c-.1-.2-.2-.3-.4-.3l-.8-.2v-.8h4.3v.8l-1.2.3 2.2 4.1 2-4.1-1.2-.3v-.8h3.5v.8l-.8.2c-.2 0-.3.1-.4.3l-2.6 5v2.5c0 .2.1.3.3.4l1.3.3v.8l-4.8.1z" class="st0"></path><path d="M20.8.1H0V4s.3 0 2.8.5c4 .8 4.3.5 4.2 3.4v24C7 39.1 12.5 45 19.3 45h1.5V.1z" class="st0"></path><path d="M20.8.1v21.6L41.4 45V23.5L20.8.1z" style="fill:#23bdc1"></path><path d="M41.4.1h20.8V4s-.3 0-2.8.5c-4 .8-4.2.5-4.2 3.4v24C55.2 39.1 49.7 45 43 45h-1.5V.1z" class="st0"></path></svg> 